# xmcd CD database file
#
# Track frame offsets:
#	150
#	21630
#	55297
#	78155
#	91585
#	111165
#	144720
#	162255
#	182300
#	201530
#	222740
#
# Disc length: 3580 seconds
#
# Revision: 12
# Processed by: cddbd v1.5.2PL0 Copyright (c) Steve Scherf et al.
# Submitted via: CDex 1.70beta2
#
DISCID=9c0dfa0b
DTITLE=Beth Orton - Trailer Park
DYEAR=1996
DGENRE=Folk-Rock
TTITLE0=She Cries Your Name
TTITLE1=Tangent
TTITLE2=Don't Need A Reason
TTITLE3=Live As You Dream
TTITLE4=Sugar Boy
TTITLE5=Touch Me With Your Love
TTITLE6=Whenever
TTITLE7=How Far
TTITLE8=Someone's Daughter
TTITLE9=I Wish I Never Saw The Sunshine
TTITLE10=Galaxy Of Emptiness
EXTD=YEAR: 1996
EXTT0=
EXTT1=
EXTT2=
EXTT3=
EXTT4=
EXTT5=
EXTT6=
EXTT7=
EXTT8=
EXTT9=
EXTT10=
PLAYORDER=
